<svg xmlns="http://www.w3.org/2000/svg" xmlns:xlink="http://www.w3.org/1999/xlink" version="1.1" id="Layer_1" x="0px" y="0px" width="100px" height="100px" viewBox="0 0 100 100" enable-background="new 0 0 100 100" xml:space="preserve">
<g>
	<path class="che-chao" d="M49.241,79.293c3.301-0.012,4.079,0.98,5.372-0.137c1.291-1.119,2.46-2.232,3.521-3.33   c-1.345-1.744,0.773-3.578-0.056-6.381c-2.617-0.656-5.678-1.029-8.947-1.029c-3.169,0-6.143,0.352-8.711,0.969   c-0.875,2.84,1.282,4.686-0.073,6.441c1.062,1.098,2.232,2.211,3.523,3.33C45.162,80.273,45.942,79.281,49.241,79.293   L49.241,79.293z M66.568,36.951c-0.411-3.495-7.979-4.357-17.312-4.357c-9.353,0-16.957,0.865-17.346,4.38   c-0.065,2.01-0.683,4.488-2.395,8.205c-1.107,2.405-1.505,6.41-0.772,6.844c3.337,3.047,5.919,6.015,5.222,5.858   c-0.943-0.209-2.717-0.504-3.895-1.178c0,0,0.375,7.396,7.825,16.385c-0.321-1.641-2.183-3.424-0.494-6.424   c1.109-1.965,2.367-2.955,5.632-4.297c1.323-0.423,2.569-0.522,2.971,0.725c0.363,1.144-0.765,1.712-0.765,1.712   c-1.931,0.793-3.142,1.629-4.064,3.026c-0.228,0.349-0.409,0.683-0.546,1.004c0.864-0.711,2.548-1.551,4.31-1.812   c2.595-0.385,3.779,0.129,4.257,0.707c0.474-0.578,1.658-1.092,4.253-0.707c1.874,0.274,3.654,1.203,4.463,1.938   c-0.145-0.36-0.342-0.737-0.604-1.133c-0.92-1.397-2.138-2.233-4.065-3.026c0,0-1.13-0.568-0.765-1.712   c0.397-1.247,1.646-1.146,2.972-0.725c3.266,1.342,4.524,2.332,5.63,4.297c1.689,3-0.172,4.782-0.492,6.424   c7.45-8.989,7.826-16.385,7.826-16.385c-1.178,0.674-2.952,0.969-3.896,1.178c-0.693,0.154,1.885-2.812,5.224-5.858   c0.731-0.437,0.334-4.439-0.773-6.845C67.251,41.449,66.632,38.964,66.568,36.951L66.568,36.951z M28.191,38.115L14.674,13.694   c6.434-3.737,18.094-8.167,35.018-8.167c16.337,0,27.771,4.131,34.332,7.777L70.29,38.115c0.039,0.359,0.069,0.559,0.104,0.53   c3.312-3.242,3.812-1.219,5.076,1.153c1.029,1.927,0.01,3.689-1.41,6.831c-2.576,5.714,1.438,5.062-3.06,8.6   c0,0-4.226,12.461-9.812,19.858c1.404,2.541-1.721,3.722-0.006,6.533c1.987,3.248-1.302,4.685,0.278,9.573   c0.875,2.729,0.751,7.492-0.149,7.666c0,0-0.476,0.104-0.459-0.354c0.013-0.241-0.017-0.948-0.017-0.948   c-0.022-1.636-0.364-3.736-0.955-5.207c-1.911-4.771,1.271-6.429-0.942-9.531c-1.521-2.144,0.108-3.465,0.021-5.153   c-3.197,3.168-5.676,3.803-5.676,3.803h-4.046h-4.045c0,0-2.476-0.631-5.677-3.803c-0.089,1.688,1.543,3.012,0.018,5.153   c-2.208,3.104,0.976,4.763-0.94,9.531c-0.589,1.471-0.93,3.573-0.953,5.207c0,0-0.025,0.707-0.018,0.948   c0.018,0.457-0.457,0.354-0.457,0.354c-0.9-0.174-1.027-4.937-0.147-7.666c1.577-4.892-1.715-6.325,0.272-9.573   c1.719-2.812-1.406-3.992-0.002-6.533c-5.586-7.397-9.81-19.858-9.81-19.858c-4.501-3.537-0.479-2.886-3.06-8.6   c-1.419-3.142-2.44-4.904-1.409-6.831c1.261-2.372,1.764-4.396,5.076-1.153C28.121,38.674,28.153,38.474,28.191,38.115   L28.191,38.115z M49.241,72.92c-3.447-0.029-3.725-0.938-3.727-1.309c-0.002-0.574,2.271-0.705,3.727-0.707   c1.454,0.002,3.729,0.133,3.727,0.707C52.965,71.982,52.689,72.891,49.241,72.92L49.241,72.92z M47.781,46.133   c0,0-1.476,2.275-5.431-0.663c-4.271-3.17-4.88-4.549-7.74-5.037c-1.543-0.264-2.456,0.516-2.456,0.516s1.013-5.785,4.856-2.562   c3.437,2.886,3.715,3.406,6.811,5.963C46.186,46.297,47.781,46.133,47.781,46.133L47.781,46.133z M37.91,47.929   c-3.221-1.906-3.51-3.341-3.51-3.341l10.771,3.566C43.209,48.855,44.704,47.929,37.91,47.929L37.91,47.929z M50.703,46.133   c0,0,1.595,0.164,3.955-1.783c3.099-2.557,3.376-3.076,6.812-5.963c3.844-3.224,4.854,2.562,4.854,2.562s-0.914-0.78-2.455-0.516   c-2.856,0.488-3.472,1.867-7.74,5.037C52.177,48.409,50.703,46.133,50.703,46.133L50.703,46.133z M60.57,47.929   c-6.793,0-5.297,0.926-7.26,0.226l10.771-3.566C64.082,44.588,63.791,46.023,60.57,47.929L60.57,47.929z M13.865,12.236   l-1.271-2.301c-0.838-1.633,12.752-9.422,36.647-9.422c23.896,0,37.485,7.789,36.646,9.422l-1.06,1.916   c-7.329-4.033-19.67-7.968-35.137-7.968C33.731,3.882,21.101,8.071,13.865,12.236L13.865,12.236z"/>
</g>
</svg>